<svg xmlns="http://www.w3.org/2000/svg" viewBox="0 0 240 120" width="24" height="12">
	<style>
		tspan { white-space:pre }
		.shp0 { display: none;fill: #ffa500 } 
	</style>
	<path id="WEB " fill-rule="evenodd" class="shp0" d="M91.42 94L79.99 94L65.78 40.14L65.59 40.14L51.38 94L39.96 94L22.68 26.8L31.99 26.8L45.62 81.71L45.82 81.71L60.31 26.8L71.06 26.8L85.46 81.71L85.66 81.71L99.38 26.8L108.7 26.8L91.42 94ZM129.82 85.36L158.52 85.36L158.52 94L120.22 94L120.22 26.8L158.52 26.8L158.52 35.44L129.82 35.44L129.82 55.12L152.76 55.12L152.76 63.76L129.82 63.76L129.82 85.36ZM209.21 59.15L209.21 59.34L217.56 64.14L217.56 87.57L206.42 94L171.96 94L171.96 26.8L206.42 26.8L217.56 33.23L217.56 54.35L209.21 59.15ZM181.56 85.36L207.96 85.36L207.96 63.57L181.56 63.57L181.56 85.36ZM181.56 54.93L207.96 54.93L207.96 35.44L181.56 35.44L181.56 54.93Z" />
	<path id="GO " fill="#ffa500" d="M46.83 70.99L58.1 70.99L58.1 83.73L35.07 83.73L35.07 37.67L58.1 37.67L58.1 46.49L71.82 46.49L71.82 32.48L60.45 25.91L32.72 25.91L21.35 32.48L21.35 88.92L32.72 95.49L60.45 95.49L71.82 88.92L71.82 59.23L46.83 59.23ZM140.91 88.92L140.91 32.48L129.54 25.91L98.87 25.91L87.5 32.48L87.5 88.92L98.87 95.49L129.54 95.49ZM101.22 37.67L127.19 37.67L127.19 83.73L101.22 83.73Z" />
</svg>