<svg xmlns="http://www.w3.org/2000/svg" viewBox="0 0 46 20" width="46" height="20">
	<style>
		tspan { white-space:pre }
	</style>
	<path id="f " fill="#ffffff" d="M9.9 4.68C9.28 4.55 8.8 4.45 8.14 4.45C6.26 4.45 5.5 5.35 5.5 6.95L5.5 8.12L4.32 8.12L4.32 10.01L5.5 10.01L5.5 15.75L7.81 15.75L7.81 10.01L9.49 10.01L9.65 8.12L7.81 8.12L7.81 7.21C7.81 6.69 7.86 6.37 8.59 6.37C8.86 6.37 9.3 6.42 9.62 6.49Z" />
	<path id="Sdílet " fill="#ffffff" d="M18.89 11.62Q18.89 11.05 18.49 10.75Q18.1 10.44 17.07 10.13Q16.04 9.82 15.43 9.44Q14.26 8.71 14.26 7.53Q14.26 6.5 15.1 5.83Q15.94 5.16 17.28 5.16Q18.17 5.16 18.87 5.49Q19.57 5.82 19.97 6.43Q20.37 7.03 20.37 7.77L18.89 7.77Q18.89 7.1 18.47 6.73Q18.05 6.35 17.27 6.35Q16.54 6.35 16.14 6.66Q15.74 6.97 15.74 7.53Q15.74 7.99 16.18 8.31Q16.61 8.62 17.61 8.92Q18.6 9.21 19.21 9.59Q19.81 9.97 20.09 10.46Q20.37 10.95 20.37 11.6Q20.37 12.67 19.55 13.3Q18.74 13.93 17.34 13.93Q16.41 13.93 15.63 13.59Q14.86 13.24 14.42 12.64Q14 12.04 14 11.23L15.48 11.23Q15.48 11.96 15.96 12.36Q16.44 12.76 17.34 12.76Q18.11 12.76 18.5 12.45Q18.89 12.13 18.89 11.62ZM21.27 10.6Q21.27 9.13 21.95 8.25Q22.63 7.36 23.77 7.36Q24.78 7.36 25.4 8.06L25.4 4.81L26.82 4.81L26.82 13.81L25.53 13.81L25.46 13.16Q24.82 13.93 23.76 13.93Q22.64 13.93 21.95 13.03Q21.27 12.14 21.27 10.6ZM22.69 10.72Q22.69 11.69 23.06 12.23Q23.44 12.77 24.12 12.77Q24.99 12.77 25.4 11.99L25.4 9.28Q25.01 8.52 24.13 8.52Q23.44 8.52 23.07 9.07Q22.69 9.62 22.69 10.72ZM29.84 7.47L29.84 13.81L28.42 13.81L28.42 7.47L29.84 7.47ZM28.43 6.63L29.57 4.85L31.19 4.85L29.57 6.63L28.43 6.63ZM32.97 4.81L32.97 13.81L31.55 13.81L31.55 4.81L32.97 4.81ZM37.32 13.93Q35.96 13.93 35.12 13.08Q34.28 12.22 34.28 10.81L34.28 10.63Q34.28 9.68 34.64 8.94Q35.01 8.19 35.68 7.77Q36.34 7.36 37.15 7.36Q38.45 7.36 39.15 8.18Q39.86 9.01 39.86 10.52L39.86 11.09L35.72 11.09Q35.78 11.88 36.24 12.34Q36.7 12.79 37.4 12.79Q38.38 12.79 38.99 12L39.76 12.73Q39.38 13.3 38.74 13.62Q38.11 13.93 37.32 13.93ZM37.15 8.5Q36.56 8.5 36.2 8.91Q35.84 9.32 35.74 10.05L38.45 10.05L38.45 9.95Q38.41 9.23 38.07 8.87Q37.74 8.5 37.15 8.5ZM41.32 5.93L42.75 5.93L42.75 7.47L43.87 7.47L43.87 8.53L42.75 8.53L42.75 12.07Q42.75 12.43 42.89 12.59Q43.04 12.75 43.4 12.75Q43.65 12.75 43.9 12.69L43.9 13.79Q43.42 13.93 42.96 13.93Q41.32 13.93 41.32 12.12L41.32 8.53L40.28 8.53L40.28 7.47L41.32 7.47L41.32 5.93Z" />
</svg>