<svg xmlns="http://www.w3.org/2000/svg" viewBox="0 0 240 120" width="24" height="12">
	<style>
		tspan { white-space:pre }
	</style>
	<path id="WEB " fill="#ffa500" d="M108.41 26.8L95.35 26.8L84.02 72.69L83.83 72.69L71.54 26.8L57.91 26.8L45.62 72.88L45.43 72.88L34.1 26.8L21.05 26.8L38.14 94L52.54 94L64.63 48.59L64.82 48.59L76.92 94L91.32 94ZM132.41 65.2L153.43 65.2L153.43 53.68L132.41 53.68L132.41 38.32L159.19 38.32L159.19 26.8L118.97 26.8L118.97 94L159.19 94L159.19 82.48L132.41 82.48ZM219.19 54.35L219.19 33.23L208.06 26.8L171.67 26.8L171.67 94L208.06 94L219.19 87.57L219.19 64.14L210.84 59.34L210.84 59.15ZM185.11 65.01L205.75 65.01L205.75 82.48L185.11 82.48ZM185.11 38.32L205.75 38.32L205.75 53.49L185.11 53.49Z" />
</svg>